<svg width="160" height="200" viewBox="0 0 160 200" fill="none" xmlns="http://www.w3.org/2000/svg">
<path d="M20.7999 187.2C21.4999 187.2 21.9999 187.8 21.9999 188.4C21.9999 189.1 21.3999 189.6 20.7999 189.6C20.0999 189.6 19.5999 189.1 19.5999 188.4C19.5999 187.7 20.0999 187.2 20.7999 187.2ZM29.7999 187.2C30.4999 187.2 30.9999 187.8 30.9999 188.4C30.9999 189.1 30.3999 189.6 29.7999 189.6C29.0999 189.6 28.5999 189.1 28.5999 188.4C28.4999 187.7 29.0999 187.2 29.7999 187.2ZM38.7999 187.2C39.4999 187.2 39.9999 187.8 39.9999 188.4C39.9999 189.1 39.3999 189.6 38.7999 189.6C38.0999 189.6 37.5999 189.1 37.5999 188.4C37.4999 187.7 38.0999 187.2 38.7999 187.2ZM47.6999 187.2C48.3999 187.2 48.8999 187.8 48.8999 188.4C48.8999 189.1 48.2999 189.6 47.6999 189.6C46.9999 189.6 46.4999 189.1 46.4999 188.4C46.4999 187.7 47.0999 187.2 47.6999 187.2ZM56.6999 187.2C57.3999 187.2 57.8999 187.8 57.8999 188.4C57.8999 189.1 57.2999 189.6 56.6999 189.6C55.9999 189.6 55.4999 189.1 55.4999 188.4C55.4999 187.7 55.9999 187.2 56.6999 187.2ZM65.6999 187.2C66.3999 187.2 66.8999 187.8 66.8999 188.4C66.8999 189.1 66.2999 189.6 65.6999 189.6C64.9999 189.6 64.4999 189.1 64.4999 188.4C64.4999 187.7 64.9999 187.2 65.6999 187.2ZM74.6999 187.2C75.3999 187.2 75.8999 187.8 75.8999 188.4C75.8999 189.1 75.2999 189.6 74.6999 189.6C73.9999 189.6 73.4999 189.1 73.4999 188.4C73.4999 187.7 73.9999 187.2 74.6999 187.2ZM83.6999 187.2C84.3999 187.2 84.8999 187.8 84.8999 188.4C84.8999 189.1 84.2999 189.6 83.6999 189.6C82.9999 189.6 82.4999 189.1 82.4999 188.4C82.4999 187.7 82.9999 187.2 83.6999 187.2ZM92.6999 187.2C93.3999 187.2 93.8999 187.8 93.8999 188.4C93.8999 189.1 93.2999 189.6 92.6999 189.6C91.9999 189.6 91.4999 189.1 91.4999 188.4C91.3999 187.7 91.9999 187.2 92.6999 187.2ZM101.6 187.1C102.3 187.1 102.8 187.7 102.8 188.3C102.8 189 102.2 189.5 101.6 189.5C100.9 189.5 100.4 189 100.4 188.3C100.4 187.7 101 187.1 101.6 187.1ZM110.6 187.1C111.3 187.1 111.8 187.7 111.8 188.3C111.8 189 111.2 189.5 110.6 189.5C109.9 189.5 109.4 189 109.4 188.3C109.4 187.7 110 187.1 110.6 187.1ZM119.6 187.1C120.3 187.1 120.8 187.7 120.8 188.3C120.8 189 120.2 189.5 119.6 189.5C118.9 189.5 118.4 189 118.4 188.3C118.4 187.7 118.9 187.1 119.6 187.1ZM128.6 187.1C129.3 187.1 129.8 187.7 129.8 188.3C129.8 189 129.2 189.5 128.6 189.5C127.9 189.5 127.4 189 127.4 188.3C127.4 187.7 127.9 187.1 128.6 187.1ZM137.6 187.1C138.3 187.1 138.8 187.7 138.8 188.3C138.8 189 138.2 189.5 137.6 189.5C136.9 189.5 136.4 189 136.4 188.3C136.4 187.7 136.9 187.1 137.6 187.1ZM146.6 187.1C147.3 187.1 147.8 187.7 147.8 188.3C147.8 189 147.2 189.5 146.6 189.5C145.9 189.5 145.4 189 145.4 188.3C145.3 187.7 145.9 187.1 146.6 187.1ZM155.6 187.1C156.3 187.1 156.8 187.7 156.8 188.3C156.8 189 156.2 189.5 155.6 189.5C154.9 189.5 154.4 189 154.4 188.3C154.3 187.7 154.9 187.1 155.6 187.1ZM92.6999 178.2C93.3999 178.2 93.8999 178.8 93.8999 179.4C93.8999 180.1 93.2999 180.6 92.6999 180.6C91.9999 180.6 91.4999 180.1 91.4999 179.4C91.3999 178.7 91.9999 178.2 92.6999 178.2ZM101.6 178.1C102.3 178.1 102.8 178.7 102.8 179.3C102.8 180 102.2 180.5 101.6 180.5C100.9 180.5 100.4 180 100.4 179.3C100.4 178.7 101 178.2 101.6 178.1ZM110.6 178.1C111.3 178.1 111.8 178.7 111.8 179.3C111.8 180 111.2 180.5 110.6 180.5C109.9 180.5 109.4 180 109.4 179.3C109.4 178.7 110 178.2 110.6 178.1ZM119.6 178.1C120.3 178.1 120.8 178.7 120.8 179.3C120.8 180 120.2 180.5 119.6 180.5C118.9 180.5 118.4 180 118.4 179.3C118.4 178.7 118.9 178.2 119.6 178.1ZM20.7999 178.2C21.4999 178.2 21.9999 178.8 21.9999 179.4C21.9999 180.1 21.3999 180.6 20.7999 180.6C20.0999 180.6 19.5999 180.1 19.5999 179.4C19.5999 178.7 20.0999 178.2 20.7999 178.2ZM38.7999 178.2C39.4999 178.2 39.9999 178.8 39.9999 179.4C39.9999 180.1 39.3999 180.6 38.7999 180.6C38.0999 180.6 37.5999 180.1 37.5999 179.4C37.4999 178.7 38.0999 178.2 38.7999 178.2ZM56.6999 178.2C57.3999 178.2 57.8999 178.8 57.8999 179.4C57.8999 180.1 57.2999 180.6 56.6999 180.6C55.9999 180.6 55.4999 180.1 55.4999 179.4C55.4999 178.7 55.9999 178.2 56.6999 178.2ZM74.6999 178.2C75.3999 178.2 75.8999 178.8 75.8999 179.4C75.8999 180.1 75.2999 180.6 74.6999 180.6C73.9999 180.6 73.4999 180.1 73.4999 179.4C73.4999 178.7 73.9999 178.2 74.6999 178.2ZM83.6999 178.2C84.3999 178.2 84.8999 178.8 84.8999 179.4C84.8999 180.1 84.2999 180.6 83.6999 180.6C82.9999 180.6 82.4999 180.1 82.4999 179.4C82.4999 178.7 82.9999 178.2 83.6999 178.2ZM137.6 178.1C138.3 178.1 138.8 178.7 138.8 179.3C138.8 180 138.2 180.5 137.6 180.5C136.9 180.5 136.4 180 136.4 179.3C136.4 178.7 136.9 178.2 137.6 178.1ZM29.7999 178.2C30.4999 178.2 30.9999 178.8 30.9999 179.4C30.9999 180.1 30.3999 180.6 29.7999 180.6C29.0999 180.6 28.5999 180.1 28.5999 179.4C28.4999 178.7 29.0999 178.2 29.7999 178.2ZM146.6 178.1C147.3 178.1 147.8 178.7 147.8 179.3C147.8 180 147.2 180.5 146.6 180.5C145.9 180.5 145.4 180 145.4 179.3C145.3 178.7 145.9 178.2 146.6 178.1ZM47.6999 178.2C48.3999 178.2 48.8999 178.8 48.8999 179.4C48.8999 180.1 48.2999 180.6 47.6999 180.6C46.9999 180.6 46.4999 180.1 46.4999 179.4C46.4999 178.7 47.0999 178.2 47.6999 178.2ZM155.6 178.1C156.3 178.1 156.8 178.7 156.8 179.3C156.8 180 156.2 180.5 155.6 180.5C154.9 180.5 154.4 180 154.4 179.3C154.3 178.7 154.9 178.2 155.6 178.1ZM65.6999 178.2C66.3999 178.2 66.8999 178.8 66.8999 179.4C66.8999 180.1 66.2999 180.6 65.6999 180.6C64.9999 180.6 64.4999 180.1 64.4999 179.4C64.4999 178.7 64.9999 178.2 65.6999 178.2ZM128.6 178.1C129.3 178.1 129.8 178.7 129.8 179.3C129.8 180 129.2 180.5 128.6 180.5C127.9 180.5 127.4 180 127.4 179.3C127.4 178.7 127.9 178.1 128.6 178.1C128.6 178.2 128.6 178.2 128.6 178.1ZM38.7999 169.2C39.4999 169.2 39.9999 169.8 39.9999 170.4C39.9999 171.1 39.3999 171.6 38.7999 171.6C38.0999 171.6 37.5999 171.1 37.5999 170.4C37.4999 169.8 38.0999 169.2 38.7999 169.2ZM56.6999 169.2C57.3999 169.2 57.8999 169.8 57.8999 170.4C57.8999 171.1 57.2999 171.6 56.6999 171.6C55.9999 171.6 55.4999 171.1 55.4999 170.4C55.4999 169.8 55.9999 169.2 56.6999 169.2ZM65.6999 169.2C66.3999 169.2 66.8999 169.8 66.8999 170.4C66.8999 171.1 66.2999 171.6 65.6999 171.6C64.9999 171.6 64.4999 171.1 64.4999 170.4C64.4999 169.8 64.9999 169.2 65.6999 169.2ZM74.6999 169.2C75.3999 169.2 75.8999 169.8 75.8999 170.4C75.8999 171.1 75.2999 171.6 74.6999 171.6C73.9999 171.6 73.4999 171.1 73.4999 170.4C73.4999 169.8 73.9999 169.2 74.6999 169.2ZM83.6999 169.2C84.3999 169.2 84.8999 169.8 84.8999 170.4C84.8999 171.1 84.2999 171.6 83.6999 171.6C82.9999 171.6 82.4999 171.1 82.4999 170.4C82.3999 169.8 82.9999 169.2 83.6999 169.2ZM20.7999 169.2C21.4999 169.2 21.9999 169.8 21.9999 170.4C21.9999 171.1 21.3999 171.6 20.7999 171.6C20.0999 171.6 19.5999 171.1 19.5999 170.4C19.5999 169.8 20.0999 169.2 20.7999 169.2ZM29.7999 169.2C30.4999 169.2 30.9999 169.8 30.9999 170.4C30.9999 171.1 30.3999 171.6 29.7999 171.6C29.0999 171.6 28.5999 171.1 28.5999 170.4C28.4999 169.8 29.0999 169.2 29.7999 169.2ZM47.6999 169.2C48.3999 169.2 48.8999 169.8 48.8999 170.4C48.8999 171.1 48.2999 171.6 47.6999 171.6C46.9999 171.6 46.4999 171.1 46.4999 170.4C46.4999 169.8 47.0999 169.2 47.6999 169.2ZM92.6999 169.2C93.3999 169.2 93.8999 169.8 93.8999 170.4C93.8999 171.1 93.2999 171.6 92.6999 171.6C91.9999 171.6 91.4999 171.1 91.4999 170.4C91.3999 169.8 91.9999 169.2 92.6999 169.2ZM101.6 169.2C102.3 169.2 102.8 169.8 102.8 170.4C102.8 171.1 102.2 171.6 101.6 171.6C100.9 171.6 100.4 171.1 100.4 170.4C100.4 169.7 101 169.2 101.6 169.2ZM110.6 169.2C111.3 169.2 111.8 169.8 111.8 170.4C111.8 171.1 111.2 171.6 110.6 171.6C109.9 171.6 109.4 171.1 109.4 170.4C109.4 169.7 110 169.2 110.6 169.2ZM119.6 169.2C120.3 169.2 120.8 169.8 120.8 170.4C120.8 171.1 120.2 171.6 119.6 171.6C118.9 171.6 118.4 171.1 118.4 170.4C118.4 169.7 118.9 169.2 119.6 169.2ZM128.6 169.2C129.3 169.2 129.8 169.8 129.8 170.4C129.8 171.1 129.2 171.6 128.6 171.6C127.9 171.6 127.4 171.1 127.4 170.4C127.4 169.7 127.9 169.2 128.6 169.2ZM137.6 169.2C138.3 169.2 138.8 169.8 138.8 170.4C138.8 171.1 138.2 171.6 137.6 171.6C136.9 171.6 136.4 171.1 136.4 170.4C136.4 169.7 136.9 169.2 137.6 169.2ZM146.6 169.2C147.3 169.2 147.8 169.8 147.8 170.4C147.8 171.1 147.2 171.6 146.6 171.6C145.9 171.6 145.4 171.1 145.4 170.4C145.3 169.7 145.9 169.2 146.6 169.2ZM155.6 169.2C156.3 169.2 156.8 169.8 156.8 170.4C156.8 171.1 156.2 171.6 155.6 171.6C154.9 171.6 154.4 171.1 154.4 170.4C154.3 169.7 154.9 169.2 155.6 169.2ZM20.7999 160.3C21.4999 160.3 21.9999 160.9 21.9999 161.5C21.9999 162.2 21.3999 162.7 20.7999 162.7C20.0999 162.7 19.5999 162.2 19.5999 161.5C19.5999 160.8 20.0999 160.3 20.7999 160.3ZM29.7999 160.3C30.4999 160.3 30.9999 160.9 30.9999 161.5C30.9999 162.2 30.3999 162.7 29.7999 162.7C29.0999 162.7 28.5999 162.2 28.5999 161.5C28.4999 160.8 29.0999 160.3 29.7999 160.3ZM38.7999 160.3C39.4999 160.3 39.9999 160.9 39.9999 161.5C39.9999 162.2 39.3999 162.7 38.7999 162.7C38.0999 162.7 37.5999 162.2 37.5999 161.5C37.4999 160.8 38.0999 160.3 38.7999 160.3ZM47.6999 160.3C48.3999 160.3 48.8999 160.9 48.8999 161.5C48.8999 162.2 48.2999 162.7 47.6999 162.7C46.9999 162.7 46.4999 162.2 46.4999 161.5C46.4999 160.8 47.0999 160.3 47.6999 160.3ZM56.6999 160.3C57.3999 160.3 57.8999 160.9 57.8999 161.5C57.8999 162.2 57.2999 162.7 56.6999 162.7C55.9999 162.7 55.4999 162.2 55.4999 161.5C55.4999 160.8 55.9999 160.3 56.6999 160.3ZM65.6999 160.3C66.3999 160.3 66.8999 160.9 66.8999 161.5C66.8999 162.2 66.2999 162.7 65.6999 162.7C64.9999 162.7 64.4999 162.2 64.4999 161.5C64.4999 160.8 64.9999 160.3 65.6999 160.3ZM74.6999 160.3C75.3999 160.3 75.8999 160.9 75.8999 161.5C75.8999 162.2 75.2999 162.7 74.6999 162.7C73.9999 162.7 73.4999 162.2 73.4999 161.5C73.4999 160.8 73.9999 160.3 74.6999 160.3ZM83.6999 160.3C84.3999 160.3 84.8999 160.9 84.8999 161.5C84.8999 162.2 84.2999 162.7 83.6999 162.7C82.9999 162.7 82.4999 162.2 82.4999 161.5C82.4999 160.8 82.9999 160.3 83.6999 160.3ZM92.6999 160.3C93.3999 160.3 93.8999 160.9 93.8999 161.5C93.8999 162.2 93.2999 162.7 92.6999 162.7C91.9999 162.7 91.4999 162.2 91.4999 161.5C91.3999 160.8 91.9999 160.3 92.6999 160.3ZM101.6 160.2C102.3 160.2 102.8 160.8 102.8 161.4C102.8 162.1 102.2 162.6 101.6 162.6C100.9 162.6 100.4 162.1 100.4 161.4C100.4 160.8 101 160.2 101.6 160.2ZM110.6 160.2C111.3 160.2 111.8 160.8 111.8 161.4C111.8 162.1 111.2 162.6 110.6 162.6C109.9 162.6 109.4 162.1 109.4 161.4C109.4 160.8 110 160.2 110.6 160.2ZM119.6 160.2C120.3 160.2 120.8 160.8 120.8 161.4C120.8 162.1 120.2 162.6 119.6 162.6C118.9 162.6 118.4 162.1 118.4 161.4C118.4 160.8 118.9 160.2 119.6 160.2ZM128.6 160.2C129.3 160.2 129.8 160.8 129.8 161.4C129.8 162.1 129.2 162.6 128.6 162.6C127.9 162.6 127.4 162.1 127.4 161.4C127.4 160.8 127.9 160.2 128.6 160.2ZM137.6 160.2C138.3 160.2 138.8 160.8 138.8 161.4C138.8 162.1 138.2 162.6 137.6 162.6C136.9 162.6 136.4 162.1 136.4 161.4C136.4 160.8 136.9 160.2 137.6 160.2ZM146.6 160.2C147.3 160.2 147.8 160.8 147.8 161.4C147.8 162.1 147.2 162.6 146.6 162.6C145.9 162.6 145.4 162.1 145.4 161.4C145.3 160.8 145.9 160.2 146.6 160.2ZM155.6 160.2C156.3 160.2 156.8 160.8 156.8 161.4C156.8 162.1 156.2 162.6 155.6 162.6C154.9 162.6 154.4 162.1 154.4 161.4C154.3 160.8 154.9 160.2 155.6 160.2ZM20.7999 151.3C21.4999 151.3 21.9999 151.9 21.9999 152.5C21.9999 153.2 21.3999 153.7 20.7999 153.7C20.0999 153.7 19.5999 153.2 19.5999 152.5C19.5999 151.9 20.0999 151.3 20.7999 151.3ZM29.7999 151.3C30.4999 151.3 30.9999 151.9 30.9999 152.5C30.9999 153.2 30.3999 153.7 29.7999 153.7C29.0999 153.7 28.5999 153.2 28.5999 152.5C28.4999 151.9 29.0999 151.3 29.7999 151.3ZM38.7999 151.3C39.4999 151.3 39.9999 151.9 39.9999 152.5C39.9999 153.2 39.3999 153.7 38.7999 153.7C38.0999 153.7 37.5999 153.2 37.5999 152.5C37.4999 151.9 38.0999 151.3 38.7999 151.3ZM47.6999 151.3C48.3999 151.3 48.8999 151.9 48.8999 152.5C48.8999 153.2 48.2999 153.7 47.6999 153.7C46.9999 153.7 46.4999 153.2 46.4999 152.5C46.4999 151.9 47.0999 151.3 47.6999 151.3ZM56.6999 151.3C57.3999 151.3 57.8999 151.9 57.8999 152.5C57.8999 153.2 57.2999 153.7 56.6999 153.7C55.9999 153.7 55.4999 153.2 55.4999 152.5C55.4999 151.9 55.9999 151.3 56.6999 151.3ZM65.6999 151.3C66.3999 151.3 66.8999 151.9 66.8999 152.5C66.8999 153.2 66.2999 153.7 65.6999 153.7C64.9999 153.7 64.4999 153.2 64.4999 152.5C64.4999 151.9 64.9999 151.3 65.6999 151.3ZM74.6999 151.3C75.3999 151.3 75.8999 151.9 75.8999 152.5C75.8999 153.2 75.2999 153.7 74.6999 153.7C73.9999 153.7 73.4999 153.2 73.4999 152.5C73.4999 151.9 73.9999 151.3 74.6999 151.3ZM83.6999 151.3C84.3999 151.3 84.8999 151.9 84.8999 152.5C84.8999 153.2 84.2999 153.7 83.6999 153.7C82.9999 153.7 82.4999 153.2 82.4999 152.5C82.3999 151.9 82.9999 151.3 83.6999 151.3ZM92.6999 151.3C93.3999 151.3 93.8999 151.9 93.8999 152.5C93.8999 153.2 93.2999 153.7 92.6999 153.7C91.9999 153.7 91.4999 153.2 91.4999 152.5C91.3999 151.9 91.9999 151.3 92.6999 151.3ZM44.4999 13.6C44.4999 14.3 43.9999 14.8 43.2999 14.8C42.5999 14.8 42.0999 14.3 42.0999 13.6C42.0999 12.9 42.5999 12.4 43.2999 12.4C43.8999 12.4 44.4999 12.9 44.4999 13.6ZM44.4999 22.6C44.4999 23.3 43.9999 23.8 43.2999 23.8C42.5999 23.8 42.0999 23.3 42.0999 22.6C42.0999 21.9 42.5999 21.4 43.2999 21.4C43.8999 21.4 44.4999 21.9 44.4999 22.6ZM44.4999 31.5C44.4999 32.2 43.9999 32.7 43.2999 32.7C42.5999 32.7 41.9999 32.2 41.9999 31.5C41.9999 30.8 42.4999 30.3 43.1999 30.3C43.8999 30.3 44.4999 30.9 44.4999 31.5ZM44.4999 40.5C44.4999 41.2 43.9999 41.7 43.2999 41.7C42.5999 41.7 41.9999 41.2 41.9999 40.5C41.9999 39.8 42.4999 39.3 43.1999 39.3C43.8999 39.3 44.4999 39.8 44.4999 40.5ZM44.4999 49.5C44.4999 50.2 43.9999 50.7 43.2999 50.7C42.5999 50.7 41.9999 50.1 41.9999 49.5C41.9999 48.8 42.4999 48.3 43.1999 48.3C43.8999 48.2 44.4999 48.8 44.4999 49.5ZM44.4999 58.4C44.4999 59.1 43.8999 59.6 43.2999 59.6C42.6999 59.6 41.9999 59.1 41.9999 58.4C41.9999 57.7 42.4999 57.2 43.1999 57.2C43.8999 57.2 44.4999 57.7 44.4999 58.4ZM44.4999 67.4C44.4999 68.1 43.9999 68.6 43.2999 68.6C42.5999 68.6 41.9999 68.1 41.9999 67.4C41.9999 66.7 42.4999 66.2 43.1999 66.2C43.8999 66.2 44.4999 66.7 44.4999 67.4ZM44.4999 76.4C44.4999 77.1 43.9999 77.6 43.2999 77.6C42.5999 77.6 41.9999 77 41.9999 76.4C41.9999 75.7 42.4999 75.2 43.1999 75.2C43.8999 75.1 44.4999 75.7 44.4999 76.4ZM44.4999 85.3C44.4999 86 43.9999 86.5 43.2999 86.5C42.5999 86.5 41.9999 86 41.9999 85.3C41.9999 84.6 42.4999 84.1 43.1999 84.1C43.8999 84.1 44.4999 84.6 44.4999 85.3ZM44.4999 94.3C44.4999 95 43.9999 95.5 43.2999 95.5C42.5999 95.5 41.9999 95 41.9999 94.3C41.9999 93.6 42.4999 93.1 43.1999 93.1C43.8999 93.1 44.4999 93.6 44.4999 94.3ZM44.4999 103.2C44.4999 103.9 43.9999 104.4 43.2999 104.4C42.5999 104.4 42.0999 103.9 42.0999 103.2C42.0999 102.5 42.5999 102 43.2999 102C43.8999 102 44.4999 102.6 44.4999 103.2ZM44.4999 112.2C44.4999 112.9 43.9999 113.4 43.2999 113.4C42.5999 113.4 42.0999 112.9 42.0999 112.2C42.0999 111.5 42.5999 111 43.2999 111C43.8999 111 44.4999 111.5 44.4999 112.2ZM44.4999 121.2C44.4999 121.9 43.9999 122.4 43.2999 122.4C42.5999 122.4 42.0999 121.9 42.0999 121.2C42.0999 120.5 42.5999 120 43.2999 120C43.8999 119.9 44.4999 120.5 44.4999 121.2ZM44.4999 130.1C44.4999 130.8 43.9999 131.3 43.2999 131.3C42.5999 131.3 42.0999 130.8 42.0999 130.1C42.0999 129.4 42.5999 128.9 43.2999 128.9C43.8999 128.9 44.4999 129.5 44.4999 130.1ZM53.4999 67.4C53.4999 68.1 52.9999 68.6 52.2999 68.6C51.5999 68.6 51.0999 68.1 51.0999 67.4C51.0999 66.7 51.5999 66.2 52.2999 66.2C52.8999 66.2 53.4999 66.7 53.4999 67.4ZM53.4999 76.4C53.4999 77.1 52.9999 77.6 52.2999 77.6C51.5999 77.6 51.0999 77.1 51.0999 76.4C51.0999 75.7 51.5999 75.2 52.2999 75.2C52.8999 75.1 53.4999 75.7 53.4999 76.4ZM53.4999 85.3C53.4999 86 52.9999 86.5 52.2999 86.5C51.5999 86.5 51.0999 86 51.0999 85.3C51.0999 84.6 51.5999 84.1 52.2999 84.1C52.8999 84.1 53.4999 84.6 53.4999 85.3ZM53.4999 94.3C53.4999 95 52.9999 95.5 52.2999 95.5C51.5999 95.5 51.0999 95 51.0999 94.3C51.0999 93.6 51.5999 93.1 52.2999 93.1C52.8999 93.1 53.4999 93.6 53.4999 94.3ZM53.4999 13.6C53.4999 14.3 52.9999 14.8 52.2999 14.8C51.5999 14.8 51.0999 14.3 51.0999 13.6C51.0999 12.9 51.5999 12.4 52.2999 12.4C52.8999 12.4 53.4999 12.9 53.4999 13.6ZM53.4999 31.5C53.4999 32.2 52.9999 32.7 52.2999 32.7C51.5999 32.7 51.0999 32.2 51.0999 31.5C51.0999 30.8 51.5999 30.3 52.2999 30.3C52.8999 30.3 53.4999 30.9 53.4999 31.5ZM53.4999 49.5C53.4999 50.2 52.9999 50.7 52.2999 50.7C51.5999 50.7 51.0999 50.2 51.0999 49.5C51.0999 48.8 51.5999 48.3 52.2999 48.3C52.8999 48.2 53.4999 48.8 53.4999 49.5ZM53.4999 58.4C53.4999 59.1 52.9999 59.6 52.2999 59.6C51.5999 59.6 51.0999 59.1 51.0999 58.4C51.0999 57.7 51.5999 57.2 52.2999 57.2C52.8999 57.2 53.4999 57.8 53.4999 58.4ZM53.4999 112.2C53.4999 112.9 52.9999 113.4 52.2999 113.4C51.5999 113.4 51.0999 112.9 51.0999 112.2C51.0999 111.5 51.5999 111 52.2999 111C52.8999 111 53.4999 111.5 53.4999 112.2ZM53.4999 121.2C53.4999 121.9 52.9999 122.4 52.2999 122.4C51.5999 122.4 51.0999 121.9 51.0999 121.2C51.0999 120.5 51.5999 120 52.2999 120C52.8999 119.9 53.4999 120.5 53.4999 121.2ZM53.4999 22.6C53.4999 23.3 52.9999 23.8 52.2999 23.8C51.5999 23.8 51.0999 23.3 51.0999 22.6C51.0999 21.9 51.5999 21.4 52.2999 21.4C52.8999 21.4 53.4999 21.9 53.4999 22.6ZM53.4999 130.1C53.4999 130.8 52.9999 131.3 52.2999 131.3C51.5999 131.3 51.0999 130.8 51.0999 130.1C51.0999 129.4 51.5999 128.9 52.2999 128.9C52.8999 128.9 53.4999 129.5 53.4999 130.1ZM53.4999 40.5C53.4999 41.2 52.8999 41.7 52.2999 41.7C51.5999 41.7 51.0999 41.1 51.0999 40.5C51.0999 39.8 51.5999 39.3 52.2999 39.3C52.8999 39.3 53.4999 39.8 53.4999 40.5ZM53.4999 103.2C53.4999 103.9 52.9999 104.4 52.2999 104.4C51.5999 104.4 51.0999 103.9 51.0999 103.2C51.0999 102.5 51.5999 102 52.2999 102C52.8999 102 53.4999 102.6 53.4999 103.2ZM62.3999 13.6C62.3999 14.3 61.8999 14.8 61.1999 14.8C60.4999 14.8 59.9999 14.3 59.9999 13.6C59.9999 12.9 60.4999 12.4 61.1999 12.4C61.8999 12.4 62.3999 12.9 62.3999 13.6ZM62.3999 31.5C62.3999 32.2 61.8999 32.7 61.1999 32.7C60.4999 32.7 59.9999 32.2 59.9999 31.5C59.9999 30.8 60.4999 30.3 61.1999 30.3C61.8999 30.3 62.3999 30.9 62.3999 31.5ZM62.3999 40.5C62.3999 41.2 61.8999 41.7 61.1999 41.7C60.4999 41.7 59.9999 41.2 59.9999 40.5C59.9999 39.8 60.4999 39.3 61.1999 39.3C61.8999 39.3 62.3999 39.8 62.3999 40.5ZM62.3999 49.5C62.3999 50.2 61.8999 50.7 61.1999 50.7C60.4999 50.7 59.9999 50.1 59.9999 49.5C59.9999 48.8 60.4999 48.3 61.1999 48.3C61.8999 48.2 62.3999 48.8 62.3999 49.5ZM62.3999 58.4C62.3999 59.1 61.7999 59.6 61.1999 59.6C60.5999 59.6 59.9999 59.1 59.9999 58.4C59.9999 57.7 60.4999 57.2 61.1999 57.2C61.8999 57.2 62.3999 57.7 62.3999 58.4ZM62.3999 22.6C62.3999 23.3 61.8999 23.8 61.1999 23.8C60.4999 23.8 59.9999 23.3 59.9999 22.6C59.9999 21.9 60.4999 21.4 61.1999 21.4C61.8999 21.4 62.3999 21.9 62.3999 22.6ZM62.3999 67.4C62.3999 68.1 61.8999 68.6 61.1999 68.6C60.4999 68.6 59.9999 68.1 59.9999 67.4C59.9999 66.7 60.4999 66.2 61.1999 66.2C61.8999 66.2 62.3999 66.7 62.3999 67.4ZM62.3999 76.4C62.3999 77.1 61.8999 77.6 61.1999 77.6C60.4999 77.6 59.9999 77 59.9999 76.4C59.9999 75.7 60.4999 75.2 61.1999 75.2C61.8999 75.1 62.3999 75.7 62.3999 76.4ZM62.3999 85.3C62.3999 86 61.8999 86.5 61.1999 86.5C60.4999 86.5 59.9999 86 59.9999 85.3C59.9999 84.6 60.4999 84.1 61.1999 84.1C61.8999 84.1 62.3999 84.6 62.3999 85.3ZM62.3999 94.3C62.3999 95 61.8999 95.5 61.1999 95.5C60.4999 95.5 59.9999 95 59.9999 94.3C59.9999 93.6 60.4999 93.1 61.1999 93.1C61.8999 93.1 62.3999 93.6 62.3999 94.3ZM62.3999 103.2C62.3999 103.9 61.8999 104.4 61.1999 104.4C60.4999 104.4 59.9999 103.9 59.9999 103.2C59.9999 102.5 60.4999 102 61.1999 102C61.8999 102 62.3999 102.6 62.3999 103.2ZM62.3999 112.2C62.3999 112.9 61.8999 113.4 61.1999 113.4C60.4999 113.4 59.9999 112.9 59.9999 112.2C59.9999 111.5 60.4999 111 61.1999 111C61.8999 111 62.3999 111.5 62.3999 112.2ZM62.3999 121.2C62.3999 121.9 61.8999 122.4 61.1999 122.4C60.4999 122.4 59.9999 121.9 59.9999 121.2C59.9999 120.5 60.4999 120 61.1999 120C61.8999 119.9 62.3999 120.5 62.3999 121.2ZM62.3999 130.1C62.3999 130.8 61.8999 131.3 61.1999 131.3C60.4999 131.3 59.9999 130.8 59.9999 130.1C59.9999 129.4 60.4999 128.9 61.1999 128.9C61.8999 128.9 62.3999 129.5 62.3999 130.1ZM71.3999 13.6C71.3999 14.3 70.8999 14.8 70.1999 14.8C69.4999 14.8 68.9999 14.3 68.9999 13.6C68.9999 12.9 69.4999 12.4 70.1999 12.4C70.8999 12.4 71.3999 12.9 71.3999 13.6ZM71.3999 22.6C71.3999 23.3 70.8999 23.8 70.1999 23.8C69.4999 23.8 68.9999 23.3 68.9999 22.6C68.9999 21.9 69.4999 21.4 70.1999 21.4C70.8999 21.4 71.3999 21.9 71.3999 22.6ZM71.3999 31.5C71.3999 32.2 70.8999 32.7 70.1999 32.7C69.4999 32.7 68.9999 32.2 68.9999 31.5C68.9999 30.8 69.4999 30.3 70.1999 30.3C70.8999 30.3 71.3999 30.9 71.3999 31.5ZM71.3999 40.5C71.3999 41.2 70.8999 41.7 70.1999 41.7C69.4999 41.7 68.9999 41.2 68.9999 40.5C68.9999 39.8 69.4999 39.3 70.1999 39.3C70.8999 39.3 71.3999 39.8 71.3999 40.5ZM71.3999 49.5C71.3999 50.2 70.8999 50.7 70.1999 50.7C69.4999 50.7 68.9999 50.2 68.9999 49.5C68.9999 48.8 69.4999 48.3 70.1999 48.3C70.8999 48.2 71.3999 48.8 71.3999 49.5ZM71.3999 58.4C71.3999 59.1 70.8999 59.6 70.1999 59.6C69.4999 59.6 68.9999 59.1 68.9999 58.4C68.9999 57.7 69.4999 57.2 70.1999 57.2C70.8999 57.2 71.3999 57.8 71.3999 58.4ZM71.3999 67.4C71.3999 68.1 70.8999 68.6 70.1999 68.6C69.4999 68.6 68.9999 68.1 68.9999 67.4C68.9999 66.7 69.4999 66.2 70.1999 66.2C70.8999 66.2 71.3999 66.7 71.3999 67.4ZM71.3999 76.4C71.3999 77.1 70.8999 77.6 70.1999 77.6C69.4999 77.6 68.9999 77.1 68.9999 76.4C68.9999 75.7 69.4999 75.2 70.1999 75.2C70.8999 75.1 71.3999 75.7 71.3999 76.4ZM71.3999 85.3C71.3999 86 70.8999 86.5 70.1999 86.5C69.4999 86.5 68.9999 86 68.9999 85.3C68.9999 84.6 69.4999 84.1 70.1999 84.1C70.8999 84.1 71.3999 84.6 71.3999 85.3ZM71.3999 94.3C71.3999 95 70.8999 95.5 70.1999 95.5C69.4999 95.5 68.9999 95 68.9999 94.3C68.9999 93.6 69.4999 93.1 70.1999 93.1C70.8999 93.1 71.3999 93.6 71.3999 94.3ZM71.3999 103.2C71.3999 103.9 70.8999 104.4 70.1999 104.4C69.4999 104.4 68.9999 103.9 68.9999 103.2C68.9999 102.5 69.4999 102 70.1999 102C70.8999 102 71.3999 102.6 71.3999 103.2ZM71.3999 112.2C71.3999 112.9 70.8999 113.4 70.1999 113.4C69.4999 113.4 68.9999 112.9 68.9999 112.2C68.9999 111.5 69.4999 111 70.1999 111C70.8999 111 71.3999 111.5 71.3999 112.2ZM71.3999 121.2C71.3999 121.9 70.8999 122.4 70.1999 122.4C69.4999 122.4 68.9999 121.9 68.9999 121.2C68.9999 120.5 69.4999 120 70.1999 120C70.8999 119.9 71.3999 120.5 71.3999 121.2ZM71.3999 130.1C71.3999 130.8 70.8999 131.3 70.1999 131.3C69.4999 131.3 68.9999 130.8 68.9999 130.1C68.9999 129.4 69.4999 128.9 70.1999 128.9C70.8999 128.9 71.3999 129.5 71.3999 130.1ZM80.3999 13.6C80.3999 14.3 79.8999 14.8 79.1999 14.8C78.4999 14.8 77.9999 14.3 77.9999 13.6C77.9999 12.9 78.4999 12.4 79.1999 12.4C79.8999 12.4 80.3999 12.9 80.3999 13.6ZM80.3999 22.6C80.3999 23.3 79.8999 23.8 79.1999 23.8C78.4999 23.8 77.9999 23.3 77.9999 22.6C77.9999 21.9 78.4999 21.4 79.1999 21.4C79.8999 21.4 80.3999 21.9 80.3999 22.6ZM80.3999 31.5C80.3999 32.2 79.8999 32.7 79.1999 32.7C78.4999 32.7 77.9999 32.2 77.9999 31.5C77.9999 30.8 78.4999 30.3 79.1999 30.3C79.8999 30.3 80.3999 30.9 80.3999 31.5ZM80.3999 40.5C80.3999 41.2 79.8999 41.7 79.1999 41.7C78.4999 41.7 77.9999 41.2 77.9999 40.5C77.9999 39.8 78.4999 39.3 79.1999 39.3C79.8999 39.3 80.3999 39.8 80.3999 40.5ZM80.3999 49.5C80.3999 50.2 79.8999 50.7 79.1999 50.7C78.4999 50.7 77.9999 50.2 77.9999 49.5C77.9999 48.8 78.4999 48.3 79.1999 48.3C79.8999 48.2 80.3999 48.8 80.3999 49.5ZM80.3999 58.4C80.3999 59.1 79.7999 59.6 79.1999 59.6C78.4999 59.6 77.9999 59 77.9999 58.4C77.9999 57.7 78.4999 57.2 79.1999 57.2C79.8999 57.2 80.3999 57.7 80.3999 58.4ZM80.3999 67.4C80.3999 68.1 79.8999 68.6 79.1999 68.6C78.4999 68.6 77.9999 68.1 77.9999 67.4C77.9999 66.7 78.4999 66.2 79.1999 66.2C79.8999 66.2 80.3999 66.7 80.3999 67.4ZM80.3999 76.4C80.3999 77.1 79.8999 77.6 79.1999 77.6C78.4999 77.6 77.9999 77.1 77.9999 76.4C77.9999 75.7 78.4999 75.2 79.1999 75.2C79.8999 75.1 80.3999 75.7 80.3999 76.4ZM80.3999 85.3C80.3999 86 79.8999 86.5 79.1999 86.5C78.4999 86.5 77.9999 86 77.9999 85.3C77.9999 84.6 78.4999 84.1 79.1999 84.1C79.8999 84.1 80.3999 84.6 80.3999 85.3ZM80.3999 94.3C80.3999 95 79.8999 95.5 79.1999 95.5C78.4999 95.5 77.9999 95 77.9999 94.3C77.9999 93.6 78.4999 93.1 79.1999 93.1C79.8999 93.1 80.3999 93.6 80.3999 94.3ZM80.3999 103.2C80.3999 103.9 79.8999 104.4 79.1999 104.4C78.4999 104.4 77.9999 103.9 77.9999 103.2C77.9999 102.5 78.4999 102 79.1999 102C79.8999 102 80.3999 102.6 80.3999 103.2ZM80.3999 112.2C80.3999 112.9 79.8999 113.4 79.1999 113.4C78.4999 113.4 77.9999 112.9 77.9999 112.2C77.9999 111.5 78.4999 111 79.1999 111C79.8999 111 80.3999 111.5 80.3999 112.2ZM80.3999 121.2C80.3999 121.9 79.8999 122.4 79.1999 122.4C78.4999 122.4 77.9999 121.9 77.9999 121.2C77.9999 120.5 78.4999 120 79.1999 120C79.8999 119.9 80.3999 120.5 80.3999 121.2ZM80.3999 130.1C80.3999 130.8 79.8999 131.3 79.1999 131.3C78.4999 131.3 77.9999 130.8 77.9999 130.1C77.9999 129.4 78.4999 128.9 79.1999 128.9C79.8999 128.9 80.3999 129.5 80.3999 130.1ZM89.3999 13.6C89.3999 14.3 88.8999 14.8 88.1999 14.8C87.4999 14.8 86.9999 14.3 86.9999 13.6C86.9999 12.9 87.4999 12.4 88.1999 12.4C88.7999 12.4 89.3999 12.9 89.3999 13.6ZM89.3999 22.6C89.3999 23.3 88.8999 23.8 88.1999 23.8C87.4999 23.8 86.9999 23.3 86.9999 22.6C86.9999 21.9 87.4999 21.4 88.1999 21.4C88.7999 21.4 89.3999 21.9 89.3999 22.6ZM89.3999 31.5C89.3999 32.2 88.8999 32.7 88.1999 32.7C87.4999 32.7 86.9999 32.2 86.9999 31.5C86.9999 30.8 87.4999 30.3 88.1999 30.3C88.7999 30.3 89.3999 30.9 89.3999 31.5ZM89.3999 40.5C89.3999 41.2 88.8999 41.7 88.1999 41.7C87.4999 41.7 86.9999 41.2 86.9999 40.5C86.9999 39.8 87.4999 39.3 88.1999 39.3C88.7999 39.3 89.3999 39.8 89.3999 40.5ZM89.3999 49.5C89.3999 50.2 88.8999 50.7 88.1999 50.7C87.4999 50.7 86.9999 50.2 86.9999 49.5C86.9999 48.8 87.4999 48.3 88.1999 48.3C88.7999 48.2 89.3999 48.8 89.3999 49.5ZM89.3999 58.4C89.3999 59.1 88.7999 59.6 88.1999 59.6C87.4999 59.6 86.9999 59 86.9999 58.4C86.9999 57.7 87.4999 57.2 88.1999 57.2C88.7999 57.2 89.3999 57.7 89.3999 58.4ZM89.3999 67.4C89.3999 68.1 88.8999 68.6 88.1999 68.6C87.4999 68.6 86.9999 68.1 86.9999 67.4C86.9999 66.7 87.4999 66.2 88.1999 66.2C88.7999 66.2 89.3999 66.7 89.3999 67.4ZM89.3999 76.4C89.3999 77.1 88.8999 77.6 88.1999 77.6C87.4999 77.6 86.9999 77.1 86.9999 76.4C86.9999 75.7 87.4999 75.2 88.1999 75.2C88.7999 75.1 89.3999 75.7 89.3999 76.4ZM89.3999 85.3C89.3999 86 88.8999 86.5 88.1999 86.5C87.4999 86.5 86.9999 86 86.9999 85.3C86.9999 84.6 87.4999 84.1 88.1999 84.1C88.7999 84.1 89.3999 84.6 89.3999 85.3ZM89.3999 94.3C89.3999 95 88.8999 95.5 88.1999 95.5C87.4999 95.5 86.9999 95 86.9999 94.3C86.9999 93.6 87.4999 93.1 88.1999 93.1C88.7999 93.1 89.3999 93.6 89.3999 94.3ZM89.3999 103.2C89.3999 103.9 88.8999 104.4 88.1999 104.4C87.4999 104.4 86.9999 103.9 86.9999 103.2C86.9999 102.5 87.4999 102 88.1999 102C88.7999 102 89.3999 102.6 89.3999 103.2ZM89.3999 112.2C89.3999 112.9 88.8999 113.4 88.1999 113.4C87.4999 113.4 86.9999 112.9 86.9999 112.2C86.9999 111.5 87.4999 111 88.1999 111C88.7999 111 89.3999 111.5 89.3999 112.2ZM89.3999 121.2C89.3999 121.9 88.8999 122.4 88.1999 122.4C87.4999 122.4 86.9999 121.9 86.9999 121.2C86.9999 120.5 87.4999 120 88.1999 120C88.7999 119.9 89.3999 120.5 89.3999 121.2ZM89.3999 130.1C89.3999 130.8 88.8999 131.3 88.1999 131.3C87.4999 131.3 86.9999 130.8 86.9999 130.1C86.9999 129.4 87.4999 128.9 88.1999 128.9C88.7999 128.9 89.3999 129.5 89.3999 130.1ZM98.3999 13.6C98.3999 14.3 97.8999 14.8 97.1999 14.8C96.4999 14.8 95.9999 14.3 95.9999 13.6C95.9999 12.9 96.4999 12.4 97.1999 12.4C97.7999 12.4 98.3999 12.9 98.3999 13.6ZM98.3999 22.6C98.3999 23.3 97.8999 23.8 97.1999 23.8C96.4999 23.8 95.9999 23.3 95.9999 22.6C95.9999 21.9 96.4999 21.4 97.1999 21.4C97.7999 21.4 98.3999 21.9 98.3999 22.6ZM98.3999 31.5C98.3999 32.2 97.8999 32.7 97.1999 32.7C96.4999 32.7 95.9999 32.2 95.9999 31.5C95.9999 30.8 96.4999 30.3 97.1999 30.3C97.7999 30.3 98.3999 30.9 98.3999 31.5ZM98.3999 40.5C98.3999 41.2 97.8999 41.7 97.1999 41.7C96.4999 41.7 95.9999 41.2 95.9999 40.5C95.9999 39.8 96.4999 39.3 97.1999 39.3C97.7999 39.3 98.3999 39.8 98.3999 40.5ZM98.3999 49.5C98.3999 50.2 97.8999 50.7 97.1999 50.7C96.4999 50.7 95.9999 50.2 95.9999 49.5C95.9999 48.8 96.4999 48.3 97.1999 48.3C97.7999 48.2 98.3999 48.8 98.3999 49.5ZM98.3999 58.4C98.3999 59.1 97.7999 59.6 97.1999 59.6C96.4999 59.6 95.9999 59 95.9999 58.4C95.9999 57.7 96.4999 57.2 97.1999 57.2C97.7999 57.2 98.3999 57.7 98.3999 58.4ZM98.3999 67.4C98.3999 68.1 97.8999 68.6 97.1999 68.6C96.4999 68.6 95.9999 68.1 95.9999 67.4C95.9999 66.7 96.4999 66.2 97.1999 66.2C97.7999 66.2 98.3999 66.7 98.3999 67.4ZM98.3999 76.4C98.3999 77.1 97.8999 77.6 97.1999 77.6C96.4999 77.6 95.9999 77.1 95.9999 76.4C95.9999 75.7 96.4999 75.2 97.1999 75.2C97.7999 75.1 98.3999 75.7 98.3999 76.4ZM98.3999 85.3C98.3999 86 97.8999 86.5 97.1999 86.5C96.4999 86.5 95.9999 86 95.9999 85.3C95.9999 84.6 96.4999 84.1 97.1999 84.1C97.7999 84.1 98.3999 84.6 98.3999 85.3ZM98.3999 94.3C98.3999 95 97.8999 95.5 97.1999 95.5C96.4999 95.5 95.9999 95 95.9999 94.3C95.9999 93.6 96.4999 93.1 97.1999 93.1C97.7999 93.1 98.3999 93.6 98.3999 94.3ZM98.3999 103.2C98.3999 103.9 97.8999 104.4 97.1999 104.4C96.4999 104.4 95.9999 103.9 95.9999 103.2C95.9999 102.5 96.4999 102 97.1999 102C97.7999 102 98.3999 102.6 98.3999 103.2ZM98.3999 112.2C98.3999 112.9 97.8999 113.4 97.1999 113.4C96.4999 113.4 95.9999 112.9 95.9999 112.2C95.9999 111.5 96.4999 111 97.1999 111C97.7999 111 98.3999 111.5 98.3999 112.2ZM98.3999 121.2C98.3999 121.9 97.8999 122.4 97.1999 122.4C96.4999 122.4 95.9999 121.9 95.9999 121.2C95.9999 120.5 96.4999 120 97.1999 120C97.7999 119.9 98.3999 120.5 98.3999 121.2ZM98.3999 130.1C98.3999 130.8 97.8999 131.3 97.1999 131.3C96.4999 131.3 95.9999 130.8 95.9999 130.1C95.9999 129.4 96.4999 128.9 97.1999 128.9C97.7999 128.9 98.3999 129.5 98.3999 130.1ZM107.4 13.6C107.4 14.3 106.9 14.8 106.2 14.8C105.5 14.8 105 14.3 105 13.6C105 12.9 105.5 12.4 106.2 12.4C106.8 12.4 107.4 12.9 107.4 13.6ZM107.4 22.6C107.4 23.3 106.9 23.8 106.2 23.8C105.5 23.8 105 23.3 105 22.6C105 21.9 105.5 21.4 106.2 21.4C106.8 21.4 107.4 21.9 107.4 22.6ZM107.4 31.5C107.4 32.2 106.9 32.7 106.2 32.7C105.5 32.7 105 32.2 105 31.5C105 30.8 105.5 30.3 106.2 30.3C106.8 30.3 107.4 30.9 107.4 31.5ZM107.4 40.5C107.4 41.2 106.9 41.7 106.2 41.7C105.5 41.7 105 41.2 105 40.5C105 39.8 105.5 39.3 106.2 39.3C106.8 39.3 107.4 39.8 107.4 40.5ZM107.4 49.5C107.4 50.2 106.9 50.7 106.2 50.7C105.5 50.7 105 50.2 105 49.5C105 48.8 105.5 48.3 106.2 48.3C106.8 48.2 107.4 48.8 107.4 49.5ZM107.4 58.4C107.4 59.1 106.9 59.6 106.2 59.6C105.5 59.6 105 59.1 105 58.4C105 57.7 105.5 57.2 106.2 57.2C106.8 57.2 107.4 57.8 107.4 58.4ZM107.4 67.4C107.4 68.1 106.9 68.6 106.2 68.6C105.5 68.6 105 68.1 105 67.4C105 66.7 105.5 66.2 106.2 66.2C106.8 66.2 107.4 66.7 107.4 67.4ZM107.4 76.4C107.4 77.1 106.9 77.6 106.2 77.6C105.5 77.6 105 77.1 105 76.4C105 75.7 105.5 75.2 106.2 75.2C106.8 75.1 107.4 75.7 107.4 76.4ZM107.4 85.3C107.4 86 106.9 86.5 106.2 86.5C105.5 86.5 105 86 105 85.3C105 84.6 105.5 84.1 106.2 84.1C106.8 84.1 107.4 84.6 107.4 85.3ZM107.4 94.3C107.4 95 106.9 95.5 106.2 95.5C105.5 95.5 105 95 105 94.3C105 93.6 105.5 93.1 106.2 93.1C106.8 93.1 107.4 93.6 107.4 94.3ZM107.4 103.2C107.4 103.9 106.9 104.4 106.2 104.4C105.5 104.4 105 103.9 105 103.2C105 102.5 105.5 102 106.2 102C106.8 102 107.4 102.6 107.4 103.2ZM107.4 112.2C107.4 112.9 106.9 113.4 106.2 113.4C105.5 113.4 105 112.9 105 112.2C105 111.5 105.5 111 106.2 111C106.8 111 107.4 111.5 107.4 112.2ZM107.4 121.2C107.4 121.9 106.9 122.4 106.2 122.4C105.5 122.4 105 121.9 105 121.2C105 120.5 105.5 120 106.2 120C106.8 119.9 107.4 120.5 107.4 121.2ZM107.4 130.1C107.4 130.8 106.9 131.3 106.2 131.3C105.5 131.3 105 130.8 105 130.1C105 129.4 105.5 128.9 106.2 128.9C106.8 128.9 107.4 129.5 107.4 130.1ZM127.3 45.3C143 51.9 154 67.6 156.7 84C159.4 100.4 153.6 117.5 142.1 129.6C130.6 141.7 113.4 149 95.6999 153.9C77.8999 158.9 59.6999 161.4 45.6999 156.2C31.6999 151 22.0999 138.1 13.7999 125C5.39989 112 -1.60011 98.8 1.39989 87.6C4.49989 76.3 17.6999 67.1 30.8999 60.2C44.0999 53.3 57.2999 48.6 74.0999 45.1C90.8999 41.4 111.5 38.7 127.3 45.3Z" fill="#F6F6F6"/>
<path d="M3.09995 155.7C1.69995 155.7 0.699951 154.6 0.699951 153.2C0.699951 152.6 0.999951 151.9 1.39995 151.5C1.89995 151 2.49995 150.8 3.09995 150.8C4.49995 150.9 5.49995 152 5.49995 153.3C5.39995 154.6 4.39995 155.7 3.09995 155.7ZM3.09995 151.6C2.59995 151.6 2.19995 151.8 1.89995 152.1C1.19995 152.8 1.19995 153.9 1.89995 154.5C2.19995 154.8 2.69995 155 3.09995 155C3.59995 155 3.99995 154.8 4.29995 154.5C4.59995 154.2 4.79995 153.7 4.79995 153.3C4.79995 152.3 4.09995 151.6 3.09995 151.6ZM126 127.1C125.8 127.1 125.6 126.9 125.6 126.7C125.6 126.6 125.6 126.5 125.7 126.4L127.4 124.7L125.7 123C125.5 122.8 125.5 122.5 125.7 122.4C125.8 122.3 125.9 122.3 126 122.3H126.1L128 124.1L129.7 122.4C129.9 122.2 130.2 122.2 130.3 122.4C130.4 122.5 130.5 122.7 130.4 122.9L128.6 124.7L130.3 126.4C130.5 126.6 130.5 126.9 130.3 127C130.1 127.1 129.9 127.1 129.7 127L128 125.3L126.3 127C126.2 127.1 126.1 127.1 126 127.1ZM28 122.2C27.9 122.2 27.8 122.2 27.7 122.1C27.5 121.9 27.5 121.6 27.7 121.5L29.4 119.8L27.7 118.1C27.5 117.9 27.5 117.6 27.7 117.5C27.8 117.4 27.9 117.4 28 117.4H28.1L30 119.2L31.7 117.5C31.9 117.3 32.1999 117.3 32.2999 117.5C32.4999 117.7 32.4999 117.9 32.2999 118.1L30.6 119.8L32.2999 121.5C32.3999 121.6 32.4 121.7 32.4 121.8C32.4 122 32.2 122.2 31.9 122.2C31.8 122.2 31.7 122.2 31.6 122.1L29.9 120.4L28.2 122.1C28.3 122.2 28.2 122.2 28 122.2ZM128 80.5C126.6 80.5 125.5 79.4 125.6 78C125.6 77.4 125.9 76.7 126.3 76.3C126.8 75.8 127.4 75.6 128 75.6C129.4 75.6 130.4 76.7 130.4 78.1C130.4 78.7 130.1 79.4 129.7 79.8C129.2 80.3 128.6 80.5 128 80.5ZM128 76.4C127.5 76.4 127.1 76.6 126.8 76.9C126.1 77.6 126.1 78.7 126.8 79.3C127.5 80 128.6 80 129.2 79.3C129.9 78.6 129.9 77.5 129.2 76.9C128.8 76.5 128.4 76.4 128 76.4ZM152.9 46.2C152.7 46.2 152.5 46 152.5 45.8C152.5 45.7 152.5 45.6 152.6 45.5L154.3 43.8L152.6 42.1C152.4 41.9 152.4 41.6 152.6 41.5C152.7 41.4 152.8 41.4 152.9 41.4H153L154.9 43.2L156.6 41.5C156.7 41.4 156.8 41.4 156.9 41.4C157.1 41.4 157.3 41.6 157.3 41.8C157.3 41.9 157.3 42 157.2 42.1L155.5 43.8L157.2 45.5C157.4 45.7 157.4 46 157.2 46.1C157 46.3 156.8 46.3 156.6 46.1L154.9 44.4L153.2 46.1C153.1 46.1 153 46.2 152.9 46.2ZM30.2 46.2C29.6 46.2 28.9 46 28.4 45.6C27.4 44.7 27.3 43.2 28.2 42.1C29.1 41.1 30.6 41 31.7 41.9C32.2 42.3 32.5 42.9 32.5 43.6C32.6 44.9 31.6 46.1 30.2 46.2ZM30 42C29.1 42 28.2999 42.8 28.2999 43.7C28.2999 44.6 29.1 45.4 30 45.4C30.9 45.4 31.7 44.6 31.7 43.7V43.6C31.7 42.7 30.9 42 30 42Z" fill="#E5E5E5"/>
<path fill-rule="evenodd" clip-rule="evenodd" d="M107 74C106.449 74 106 73.5514 106 73C106 72.4486 106.449 72 107 72C107.551 72 108 72.4486 108 73C108 73.5514 107.551 74 107 74Z" fill="#ECECFE"/>
<path fill-rule="evenodd" clip-rule="evenodd" d="M80 137C79.4486 137 79 136.551 79 136C79 135.449 79.4486 135 80 135C80.5514 135 81 135.449 81 136C81 136.551 80.5514 137 80 137Z" fill="#ECECFE"/>
<path fill-rule="evenodd" clip-rule="evenodd" d="M54 71C53.4486 71 53 70.5514 53 70C53 69.4486 53.4486 69 54 69C54.5514 69 55 69.4486 55 70C55 70.5514 54.5514 71 54 71Z" fill="#ECECFE"/>
<path d="M55 83C54.4486 83 54 82.5514 54 82C54 81.4486 54.4486 81 55 81C55.5514 81 56 81.4486 56 82C56 82.5514 55.5514 83 55 83Z" fill="#E1000F"/>
<path d="M59 83C58.4486 83 58 82.5514 58 82C58 81.4486 58.4486 81 59 81C59.5514 81 60 81.4486 60 82C60 82.5514 59.5514 83 59 83Z" fill="#E1000F"/>
<path d="M62 82C62 82.5514 62.4486 83 63 83C63.5514 83 64 82.5514 64 82C64 81.4486 63.5514 81 63 81C62.4486 81 62 81.4486 62 82Z" fill="#E1000F"/>
<path d="M101 81C101.552 81 102 81.4477 102 82C102 82.5128 101.614 82.9355 101.117 82.9933L101 83H71C70.4477 83 70 82.5523 70 82C70 81.4872 70.386 81.0645 70.8834 81.0067L71 81H101Z" fill="#E1000F"/>
<path fill-rule="evenodd" clip-rule="evenodd" d="M90.2924 110.707C90.1049 111.098 90 111.537 90 112C90 113.657 91.3431 115 93 115C94.6569 115 96 113.657 96 112C96 111.385 95.8149 110.813 95.4973 110.337L99.8 104.6L99.869 104.495C100.116 104.063 100.008 103.506 99.6 103.2C99.1582 102.869 98.5314 102.958 98.2 103.4L93.8976 109.137C93.6142 109.048 93.3127 109 93 109C92.5369 109 92.0982 109.105 91.7066 109.292L89.7071 107.293L89.6129 107.21C89.2206 106.905 88.6534 106.932 88.2929 107.293C87.9024 107.683 87.9024 108.317 88.2929 108.707L90.2924 110.707ZM93 111C93.5523 111 94 111.448 94 112C94 112.552 93.5523 113 93 113C92.4477 113 92 112.552 92 112C92 111.448 92.4477 111 93 111Z" fill="#E1000F"/>
<path d="M105.993 77.8834C105.936 77.386 105.513 77 105 77H51L50.8834 77.0067C50.386 77.0645 50 77.4872 50 78V124L50.0067 124.117C50.0645 124.614 50.4872 125 51 125H75L75.1166 124.993C75.614 124.936 76 124.513 76 124L75.9933 123.883C75.9355 123.386 75.5128 123 75 123H52V87H89L89.1166 86.9933C89.614 86.9355 90 86.5128 90 86C90 85.4477 89.5523 85 89 85H52V79H104V94L104.007 94.1166C104.064 94.614 104.487 95 105 95C105.552 95 106 94.5523 106 94V78L105.993 77.8834Z" fill="#000091"/>
<path d="M110 112C110 102.611 102.389 95 93 95C83.6112 95 76 102.611 76 112C76 120.621 82.417 127.743 90.7351 128.85L90.2929 129.293L90.2097 129.387C89.9047 129.779 89.9324 130.347 90.2929 130.707C90.6834 131.098 91.3166 131.098 91.7071 130.707L93.7071 128.707C93.7365 128.678 93.7641 128.646 93.7897 128.614C93.8454 128.542 93.8907 128.464 93.9242 128.383C93.9668 128.28 93.9928 128.168 93.9987 128.051C93.9996 128.034 94 128.017 94 128C94 127.865 93.9733 127.737 93.925 127.619C93.8762 127.501 93.8036 127.389 93.7071 127.293L91.7071 125.293L91.6129 125.21C91.2206 124.905 90.6534 124.932 90.2929 125.293L90.2097 125.387C89.9047 125.779 89.9324 126.347 90.2929 126.707L90.3529 126.767C83.3311 125.517 78 119.381 78 112C78 103.716 84.7157 97 93 97C101.284 97 108 103.716 108 112C108 115.499 106.799 118.811 104.636 121.467C104.287 121.895 104.351 122.525 104.779 122.874C105.207 123.223 105.837 123.159 106.186 122.731C108.638 119.721 110 115.963 110 112Z" fill="#000091"/>
<path d="M103.626 125.27C104.057 124.925 104.126 124.296 103.781 123.865C103.435 123.434 102.806 123.365 102.375 123.71C101.785 124.183 101.161 124.611 100.507 124.99C100.029 125.266 99.8658 125.878 100.143 126.356C100.419 126.834 101.031 126.997 101.509 126.72C102.25 126.291 102.958 125.806 103.626 125.27Z" fill="#000091"/>
<path d="M95.2225 101.225C94.4962 101.076 93.7527 101 93 101C86.9249 101 82 105.925 82 112C82 118.075 86.9249 123 93 123C99.0751 123 104 118.075 104 112C104 110.484 103.693 109.009 103.104 107.646C102.886 107.139 102.297 106.905 101.79 107.124C101.283 107.343 101.049 107.931 101.268 108.438C101.749 109.553 102 110.758 102 112C102 116.971 97.9706 121 93 121C88.0294 121 84 116.971 84 112C84 107.029 88.0294 103 93 103C93.6174 103 94.2262 103.062 94.8203 103.184C95.3613 103.295 95.8899 102.947 96.001 102.405C96.1121 101.864 95.7635 101.336 95.2225 101.225Z" fill="#000091"/>
<path d="M77 93C77.5523 93 78 93.4477 78 94C78 94.5128 77.614 94.9355 77.1166 94.9933L77 95H59C58.4477 95 58 94.5523 58 94C58 93.4872 58.386 93.0645 58.8834 93.0067L59 93H77Z" fill="#000091"/>
<path d="M74 100C74 99.4477 73.5523 99 73 99H59L58.8834 99.0067C58.386 99.0645 58 99.4872 58 100C58 100.552 58.4477 101 59 101H73L73.1166 100.993C73.614 100.936 74 100.513 74 100Z" fill="#000091"/>
<path d="M71 105C71.5523 105 72 105.448 72 106C72 106.513 71.614 106.936 71.1166 106.993L71 107H59C58.4477 107 58 106.552 58 106C58 105.487 58.386 105.064 58.8834 105.007L59 105H71Z" fill="#000091"/>
</svg>
